<svg width="360" height="360" viewBox="0 0 360 360" fill="none" xmlns="http://www.w3.org/2000/svg">
<g filter="url(#filter0_d_2_5)">
<path d="M305.809 163.223C305.809 239.665 242.507 301.723 164.309 301.723C86.1112 301.723 22.8093 239.665 22.8093 163.223C22.8093 86.7809 86.1112 24.723 164.309 24.723C242.507 24.723 305.809 86.7809 305.809 163.223Z" fill="#FCEF7C" stroke="#FFFCFC" stroke-width="5"/>
<path fill-rule="evenodd" clip-rule="evenodd" d="M184.584 182.95V182.658L181.584 179.43V182.932L170.169 194.347L171.168 195.422L168.97 197.464L163.779 191.879L161.736 189.682L162.22 189.232L72.1984 87.9576C88.1888 94.2186 108.722 103.698 127.929 115.48C151.908 130.189 173.223 148.128 181.584 167.422V175.024L181.736 175.187L184.584 178.251V166.809C168.365 128.191 103.423 96.2652 67.8825 83.1023C65.8173 82.3374 63.8513 81.6358 62 81L66.1394 85.6568L166.243 198.273L168.239 200.519L170.09 198.669L171.013 199.661L227.978 260.945C232.588 265.903 240.344 266.186 245.303 261.577C250.261 256.968 250.545 249.211 245.935 244.253L188.97 182.97L186.927 180.772L184.73 182.815L184.584 182.95ZM230.176 258.902L173.21 197.619L186.772 185.012L243.738 246.295C247.219 250.04 247.005 255.898 243.26 259.38C239.515 262.861 233.657 262.647 230.176 258.902Z" fill="#6B5454"/>
<path fill-rule="evenodd" clip-rule="evenodd" d="M183.753 125.182L182.974 124.42L195.922 111.182L197.46 112.687C196.225 114.34 194.88 115.921 193.447 117.409C190.551 120.415 187.267 123.069 183.753 125.182ZM181.011 126.696C181.938 126.229 182.853 125.723 183.753 125.182L281.609 220.895C285.264 224.47 291.126 224.405 294.701 220.75C298.277 217.094 298.212 211.233 294.556 207.657L197.46 112.687C198.068 111.872 198.649 111.041 199.202 110.194L296.654 205.513C301.494 210.247 301.58 218.008 296.846 222.848C292.112 227.687 284.351 227.773 279.511 223.039L181.011 126.696ZM178.733 124.468L180.877 126.565L181.011 126.696C178.045 128.191 174.952 129.29 171.822 129.89C163.837 131.421 155.629 129.689 148.85 123.058L97 72.3433L99.0977 70.1986L150.948 120.913C156.948 126.783 164.127 128.311 171.257 126.944C173.773 126.461 176.286 125.616 178.733 124.468ZM178.733 124.468L178.732 124.467L180.83 122.322L193.777 109.085L195.875 106.94L197.012 108.052C195.381 110.63 193.449 113.083 191.286 115.328C187.592 119.163 183.276 122.337 178.733 124.468ZM197.012 108.052C199.667 103.854 201.522 99.3262 202.265 94.8346C203.457 87.6352 201.801 80.5403 195.993 74.8595L144.143 24.1447L146.241 22L198.091 72.7149C204.698 79.177 206.552 87.3034 205.225 95.3243C204.376 100.457 202.228 105.551 199.202 110.194L198.02 109.038L197.012 108.052ZM130.335 38.0723L182.915 89.5015L180.817 91.6461L128.237 40.217L130.335 38.0723ZM116.049 52.6779L168.629 104.107L166.531 106.252L113.951 54.8226L116.049 52.6779Z" fill="#6B5454"/>
<path fill-rule="evenodd" clip-rule="evenodd" d="M109.139 202.629L195.448 287.048C199.506 291.018 206.015 290.946 209.985 286.887C213.955 282.828 213.883 276.32 209.824 272.35L123.515 187.931L109.139 202.629ZM193.35 289.193C198.593 294.321 207.001 294.228 212.13 288.985C217.258 283.742 217.165 275.334 211.922 270.205L125.613 185.786L123.468 183.688L121.371 185.833L106.994 200.531L104.897 202.676L107.041 204.773L193.35 289.193ZM63.9752 111.936C52.5268 109.579 42.7088 111.687 36.5637 117.969C30.4185 124.252 28.5292 134.114 31.1384 145.508C33.7391 156.864 40.7539 169.313 51.6979 180.017C62.642 190.722 75.2433 197.459 86.6544 199.808C98.1028 202.165 107.921 200.057 114.066 193.775C120.211 187.492 122.1 177.63 119.491 166.236C116.89 154.88 109.876 142.431 98.9317 131.726C87.9876 121.022 75.3863 114.285 63.9752 111.936ZM101.029 129.582C78.4432 107.49 48.6208 101.352 34.419 115.871C20.2172 130.391 27.0141 160.07 49.6002 182.162C72.1863 204.254 102.009 210.392 116.211 195.872C130.412 181.353 123.616 151.673 101.029 129.582Z" fill="#6B5454"/>
<path d="M276 189C288.667 159 290.6 90.8 197 58M260 214C256 221.667 245.8 237.4 237 239M215 256L197 266M172 278C157.333 279.667 125.6 279.6 116 266" stroke="#6B5454" stroke-width="5"/>
</g>
<defs>
<filter id="filter0_d_2_5" x="-4" y="0" width="368" height="368" filterUnits="userSpaceOnUse" color-interpolation-filters="sRGB">
<feFlood flood-opacity="0" result="BackgroundImageFix"/>
<feColorMatrix in="SourceAlpha" type="matrix" values="0 0 0 0 0 0 0 0 0 0 0 0 0 0 0 0 0 0 127 0" result="hardAlpha"/>
<feOffset dy="4"/>
<feGaussianBlur stdDeviation="2"/>
<feComposite in2="hardAlpha" operator="out"/>
<feColorMatrix type="matrix" values="0 0 0 0 0 0 0 0 0 0 0 0 0 0 0 0 0 0 0.25 0"/>
<feBlend mode="normal" in2="BackgroundImageFix" result="effect1_dropShadow_2_5"/>
<feBlend mode="normal" in="SourceGraphic" in2="effect1_dropShadow_2_5" result="shape"/>
</filter>
</defs>
</svg>
